<?xml version="1.0" encoding="UTF-8" standalone="no"?><!DOCTYPE svg PUBLIC "-//W3C//DTD SVG 1.1//EN" "http://www.w3.org/Graphics/SVG/1.1/DTD/svg11.dtd"><svg width="100%" height="100%" viewBox="0 0 2134 2134" version="1.1" xmlns="http://www.w3.org/2000/svg" xmlns:xlink="http://www.w3.org/1999/xlink" xml:space="preserve" xmlns:serif="http://www.serif.com/" style="fill-rule:evenodd;clip-rule:evenodd;stroke-linecap:round;stroke-miterlimit:10;"><g id="color"><g><path d="M1407.06,1984.04c102.144,-166.312 146.434,-361.729 125.973,-555.825l-93.384,-137.162l-182.76,-68.265c2.434,28.504 69.876,245.735 89.554,302.433c4.44,12.835 6.419,26.391 5.828,39.961c-11.034,244.618 -69.449,310.81 -84.322,323.814c-0.943,0.739 -1.873,1.473 -2.78,2.225l-0.699,0.485l0.111,0.102c-16.256,13.81 -26.24,33.603 -27.672,54.887c-1.255,47.346 35.769,86.916 83.093,88.806c26.997,2.078 53.481,-8.212 71.994,-27.97l0.106,0.098l0.348,-0.548c6.161,-6.78 11.104,-14.575 14.61,-23.041Z" style="fill:#6a462f;fill-rule:nonzero;"/><path d="M937.505,1944.54c8.12,-108.244 10.518,-216.844 7.185,-325.341c5.228,-81.306 -11.233,-162.54 -47.697,-235.396l-94.537,17.484l-49.001,114.829l39.868,117.453c53.014,150.754 30.698,221.315 7.3,252.853c-10.277,6.127 -19.393,14.024 -26.916,23.326l-0.343,0.147l0.161,0.063c-19.99,23.148 -25.293,55.558 -13.725,83.872c22.725,43.231 76.064,60.043 119.473,37.66c24.562,-10.601 43.773,-30.715 53.241,-55.736c0.084,-0.401 0.351,-0.841 0.444,-1.246c3.408,-9.61 4.952,-19.78 4.547,-29.968Z" style="fill:#6a462f;fill-rule:nonzero;"/><path d="M361.66,649.529c78.694,119.58 122.507,258.726 126.525,401.824c0.026,1.41 0.2,2.811 0.516,4.186c3.83,16.728 31.93,130.733 95.057,173.68c-0,-0 107.807,106.481 -81.644,163.989c0,0 -304.862,107.452 -211.771,291.142c-0,-0 65.956,114.672 149.236,3.314l4.365,-8.591c7.092,-24.656 5.299,-51.039 -5.099,-74.529c-3.879,-8.765 -0.498,-22.227 6.776,-28.469c49.508,-42.51 116.897,-57.681 179.855,-40.473c-0,0 103.323,43.645 232.49,-159.064l4.116,-4.792c20.888,-17.373 180.682,-140.895 470.151,-112.314c5.432,0.533 10.472,2.758 14.392,6.553c37.981,36.762 252.707,241.945 379.899,306.499l5.797,4.334c74.952,79.757 106.144,191.186 83.418,298.331l-6.122,11.162c-18.797,19.144 -81.554,94.345 39.605,140.397l9.801,1.699c25.76,-0.97 139.356,-13.903 90.284,-168.056c-0.717,-2.1 -1.095,-4.297 -1.13,-6.517c-0.187,-32.149 -3.92,-309.707 -77.617,-464.532l-6.216,-7.933c-16.59,-13.698 -83.351,-94.585 -32.953,-486.047c0.258,-1.988 8.048,-6.522 7.483,-8.453c-8.742,-30.053 49.984,-121.453 77.568,-148.044c8.213,-7.394 310.432,-281.568 121.982,-473.808c-1.303,-1.335 -9.903,-11.621 -23.183,-21.529c-19.665,-16.942 -160.675,-136.926 -316.292,-57.414c-47.862,24.456 -84.215,66.321 -110.277,113.325c-15.843,28.575 -29.199,58.517 -39.885,89.495c-33.198,116.435 47.364,213.445 91.725,100.792c4.004,-10.139 58.281,-90.91 62.107,-102.722c1.197,-3.84 3.337,-7.315 6.229,-10.109c22.854,-21.141 129.626,-107.113 183.196,76.194c-0,-0 47.559,161.467 -198.011,244.204c-5.704,1.922 -11.968,1.789 -17.454,-0.685c-34.47,-15.522 -180.304,-69.956 -410.676,-3.505l-1.055,0.266c-13.609,2.35 -455.051,75.727 -504.817,-293.566c-0,0 -32.9,-203.608 -137.029,-206.433l-231.667,-34.986c-0,-0 -101.041,-0.735 -116.408,75.356c-0,0 -1.806,62.411 -116.715,59.11c-29.492,0.111 -138.55,-18.753 -92.797,102.842c2.051,5.13 2.301,10.807 0.708,16.097c-9.73,29.955 -35.027,140.143 114.641,151.648c0.009,-0 130.934,-6.647 180.896,86.123l-0,0.009Z" style="fill:#a57939;fill-rule:nonzero;"/></g></g><g id="line"><g><path d="M1275.79,1297.63c9.369,27.721 77.933,211.811 83.756,227.592c4.716,12.773 6.825,26.36 6.202,39.961c-11.732,244.618 -73.853,310.81 -89.665,323.814c-1.001,0.739 0.97,-0.774 0,0" style="fill:none;fill-rule:nonzero;stroke:#000;stroke-width:88.98px;"/><path d="M1375.07,2014.42c172.331,-153.664 157.636,-586.203 157.636,-586.203" style="fill:none;fill-rule:nonzero;stroke:#000;stroke-width:88.98px;"/><path d="M1276.06,1889c-17.346,14.847 -29.016,35.245 -33.025,57.722c-3.141,44.939 29.969,84.254 74.788,88.806c24.874,1.824 49.068,-8.622 64.799,-27.971l0.098,0.098" style="fill:none;fill-rule:nonzero;stroke:#000;stroke-width:88.98px;stroke-linecap:butt;"/><path d="M753.455,1516.12l39.868,117.453c53.014,150.754 30.698,221.315 7.3,252.853l-27.098,23.536c-19.99,23.148 -25.293,55.558 -13.725,83.872c22.725,43.231 76.064,60.043 119.473,37.66c24.562,-10.601 43.773,-30.715 53.241,-55.736c0.084,-0.401 0.351,-0.841 0.444,-1.246c3.408,-9.605 4.957,-19.771 4.556,-29.955c8.12,-108.244 10.518,-216.844 7.185,-325.341c2.256,-34.257 0.588,-68.661 -4.983,-102.536c-7.069,-46.278 -21.484,-91.133 -42.71,-132.86" style="fill:none;fill-rule:nonzero;stroke:#000;stroke-width:88.98px;stroke-linecap:butt;"/><g><path d="M281.285,1572.77c-10.892,37.037 -7.657,76.798 9.075,111.589c16.751,43.102 65.125,64.635 108.36,48.227c39.382,-18.045 38.435,-79.993 24.914,-125.719" style="fill:none;fill-rule:nonzero;stroke:#000;stroke-width:88.98px;"/><path d="M421.623,1600.18c40.922,-48.182 101.873,-74.671 165.022,-71.713c8.257,0.089 16.466,1.33 24.38,3.693c62.055,22.347 131.165,-3.533 163.278,-61.143" style="fill:none;fill-rule:nonzero;stroke:#000;stroke-width:88.98px;"/><g><path d="M1836.37,919.004l-13.165,250.603c0,-0 -9.316,164.269 35.939,202.037c43.489,61.48 63.558,136.486 56.582,211.469c0,-0 23.86,256.155 31.023,355.509" style="fill:none;fill-rule:nonzero;stroke:#000;stroke-width:88.98px;"/><path d="M1615.09,508.292c113.151,-287.231 230.498,-141.923 230.498,-141.923c141.357,175.29 -44.174,283.085 -125.929,319.833c-19.864,8.186 -42.22,7.866 -61.84,-0.89c-113.966,-45.784 -392.654,7.964 -392.654,7.964c-349.339,32.62 -421.684,-113.716 -421.684,-113.716c-54.002,-103.354 -99.595,-210.891 -136.335,-321.564c-7.078,-23.312 -24.167,-42.265 -46.621,-51.719c-74.155,-25.012 -151.19,-40.481 -229.251,-46.029c-139.543,-16.017 -156.355,73.439 -156.355,73.439c-23.669,60.907 -63.968,58.914 -63.968,58.914l-82.916,0.307c-102.825,5.734 -59.225,111.344 -59.225,111.344c-26.057,137.407 137.403,165.832 137.403,165.832c53.125,1.245 103.848,22.383 142.14,59.229c69.952,104.355 114.566,223.602 130.298,348.244c9.476,163.46 77.176,220.732 77.176,220.732c127.014,123.273 0,169.951 0,169.951c-187.231,67.834 -255.816,143.76 -273.323,204.925" style="fill:none;fill-rule:nonzero;stroke:#000;stroke-width:88.98px;"/></g><path d="M1946.73,1938.62c8.253,74.116 -43.703,93.015 -92.739,89.799c-46.239,-0.307 -83.583,-37.843 -83.641,-84.086c3.225,-22.005 8.257,-43.707 15.042,-64.884" style="fill:none;fill-rule:nonzero;stroke:#000;stroke-width:88.98px;"/><path d="M1946.73,1938.62c0.467,6.478 0.889,12.333 1.183,17.351" style="fill:none;fill-rule:nonzero;stroke:#000;stroke-width:88.98px;"/><path d="M1778.75,1906.78c16.6,-55.39 48.428,-199.889 -27.948,-312.123c-5.708,-8.253 -12.978,-15.305 -21.395,-20.759c-50.296,-33.012 -241.028,-162.544 -325.911,-282.066c-11.723,-16.105 -29.937,-26.24 -49.806,-27.713c-110.749,-9.703 -459.789,-19.633 -587.666,221.649" style="fill:none;fill-rule:nonzero;stroke:#000;stroke-width:88.98px;"/></g></g></g><g id="color-foreground"><g><path d="M497.496,846.828c0,0 214.232,46.764 352.805,-193.232c-0,-0 103.319,95.208 357.832,88.152c-48.908,154.473 -57.45,318.894 -24.812,477.603c-112.306,5.094 -221.609,37.905 -318.152,95.506c-60.599,-46.483 -138.185,-64.844 -213.191,-50.451c-11.896,-35.753 -32.762,-67.856 -60.604,-93.242c0,-0 -60.381,-44.966 -68.212,-192.085l-25.666,-132.251Z" style="fill:#d22f27;fill-rule:nonzero;"/><path d="M978.774,994.321l-203.79,0" style="fill:none;fill-rule:nonzero;stroke:#fff;stroke-width:88.98px;stroke-linecap:butt;"/><path d="M876.705,1096.22l0,-203.79" style="fill:none;fill-rule:nonzero;stroke:#fff;stroke-width:88.98px;stroke-linecap:butt;"/></g></g></svg>